<?xml version="1.0"?>
<svg xmlns:rdf="http://www.w3.org/1999/02/22-rdf-syntax-ns#" xmlns="http://www.w3.org/2000/svg" xmlns:cc="http://web.resource.org/cc/" xmlns:xlink="http://www.w3.org/1999/xlink" xmlns:dc="http://purl.org/dc/elements/1.1/" xmlns:svg="http://www.w3.org/2000/svg" id="svg2" viewBox="0 0 16 16" version="1.0">
  <defs id="defs4">
    <radialGradient id="radialGradient2764" gradientUnits="userSpaceOnUse" cy="8.2976" cx="8.902" gradientTransform="matrix(1.0604 0 0 .19882 -1.4393 12.85)" r="7.5446">
      <stop id="stop2760" offset="0"/>
      <stop id="stop2762" stop-opacity="0" offset="1"/>
    </radialGradient>
    <radialGradient id="radialGradient7071" gradientUnits="userSpaceOnUse" cy="5.1875" cx="1.6848" gradientTransform="matrix(.69310 3.175 -3.6848 .80437 19.201 -9.522)" r="5.9842">
      <stop id="stop6684" stop-color="#fff" offset="0"/>
      <stop id="stop6686" stop-color="#ef2946" offset="1"/>
    </radialGradient>
    <radialGradient id="radialGradient7073" gradientUnits="userSpaceOnUse" cy="11.985" cx="11" gradientTransform="matrix(1.2221 -1.1471 1.0091 1.0706 -14.516 11.788)" r="6.9741">
      <stop id="stop3149" stop-color="#ef2962" offset="0"/>
      <stop id="stop3151" stop-color="#ff4673" offset="1"/>
    </radialGradient>
  </defs>
  <g id="layer1">
    <path id="path2177" opacity=".4" style="color:#000000" d="m16 14.5c0 0.828-3.584 1.5-8 1.5s-8-0.672-8-1.5 3.584-1.5 8-1.5 8 0.672 8 1.5z" fill-rule="evenodd" fill="url(#radialGradient2764)"/>
    <path id="rect5503" stroke="#d60045" stroke-linecap="round" fill="url(#radialGradient7073)" d="m4.0104 1.5223h8.0041c1.377 0 2.4855 1.1085 2.4855 2.4855v7.9934c0 1.377-1.1085 2.4855-2.4855 2.4855h-8.0041c-1.377 0-2.4855-1.1085-2.4855-2.4855v-7.9934c0-1.377 1.1085-2.4855 2.4855-2.4855z"/>
    <path id="rect5505" opacity=".8" d="m4.0303 2.509h7.9709c0.83032 0 1.4988 0.66845 1.4988 1.4988v7.9934c0 0.83032-0.66845 1.4988-1.4988 1.4988h-7.9709c-0.83032 0-1.4988-0.66845-1.4988-1.4988v-7.9934c0-0.83032 0.66845-1.4988 1.4988-1.4988z" stroke="url(#radialGradient7071)" stroke-linecap="round" fill="none"/>
    <path id="path920" fill-rule="evenodd" fill="#fff" d="m8 6c2-3 4.015-0.463 4 1.1617-0.014 1.4852-1.156 2.1965-4 4.8383-2.9766-2.4576-4.0153-3.0243-3.9998-4.7865 0.0154-1.8241 1.9998-4.2135 3.9998-1.2135z"/>
  </g>
  <metadata>
    <rdf:RDF>
      <cc:Work>
        <dc:format>image/svg+xml</dc:format>
        <dc:type rdf:resource="http://purl.org/dc/dcmitype/StillImage"/>
        <cc:license rdf:resource="http://creativecommons.org/licenses/publicdomain/"/>
        <dc:publisher>
          <cc:Agent rdf:about="http://openclipart.org/">
            <dc:title>Openclipart</dc:title>
          </cc:Agent>
        </dc:publisher>
        <dc:title>Cubicopp heart smiley </dc:title>
        <dc:date>2010-06-20T20:25:39</dc:date>
        <dc:description>for freegamedev</dc:description>
        <dc:source>http://openclipart.org/detail/67981/cubicopp-heart-smiley--by-qubodup-67981</dc:source>
        <dc:creator>
          <cc:Agent>
            <dc:title>qubodup</dc:title>
          </cc:Agent>
        </dc:creator>
        <dc:subject>
          <rdf:Bag>
            <rdf:li>clip art</rdf:li>
            <rdf:li>clipart</rdf:li>
            <rdf:li>heart</rdf:li>
            <rdf:li>love</rdf:li>
            <rdf:li>pink</rdf:li>
            <rdf:li>rectangle</rdf:li>
          </rdf:Bag>
        </dc:subject>
      </cc:Work>
      <cc:License rdf:about="http://creativecommons.org/licenses/publicdomain/">
        <cc:permits rdf:resource="http://creativecommons.org/ns#Reproduction"/>
        <cc:permits rdf:resource="http://creativecommons.org/ns#Distribution"/>
        <cc:permits rdf:resource="http://creativecommons.org/ns#DerivativeWorks"/>
      </cc:License>
    </rdf:RDF>
  </metadata>
</svg>
